<svg width="14" height="15" viewBox="0 0 14 15" fill="none" xmlns="http://www.w3.org/2000/svg">
<path d="M7 14.5C3.14125 14.5 0 11.3587 0 7.5C0 3.64125 3.14125 0.5 7 0.5C10.8587 0.5 14 3.64125 14 7.5C14 11.3587 10.8587 14.5 7 14.5ZM12.9033 8.45783C12.6992 8.39367 11.0542 7.90192 9.17933 8.20233C9.961 10.3513 10.2801 12.1013 10.3413 12.4653C11.0194 12.0076 11.5967 11.4159 12.0376 10.7267C12.4785 10.0375 12.7737 9.26538 12.9051 8.45783H12.9033ZM9.33625 13.0125C9.247 12.4875 8.89875 10.6605 8.05875 8.48L8.02025 8.49167C4.64275 9.66708 3.43525 12.0062 3.33025 12.225C4.37688 13.0459 5.66923 13.491 6.99942 13.4885C7.82775 13.4885 8.61525 13.3193 9.33275 13.0137L9.33625 13.0125ZM2.55792 11.5075C2.69325 11.2742 4.33417 8.55875 7.41825 7.56125C7.497 7.535 7.57575 7.51225 7.6545 7.49125C7.50283 7.15 7.3395 6.8105 7.16917 6.47625C4.1825 7.36875 1.28683 7.33083 1.02433 7.325L1.022 7.507C1.022 9.04292 1.60417 10.4452 2.5585 11.5057L2.55792 11.5075ZM1.14625 6.28375C1.41458 6.28842 3.878 6.29892 6.6745 5.55575C5.99817 4.36416 5.25821 3.20982 4.45783 2.09775C3.6205 2.49196 2.88583 3.07471 2.31139 3.80035C1.73695 4.52599 1.33835 5.37479 1.14683 6.28025L1.14625 6.28375ZM5.6 1.697C5.7645 1.91867 6.85125 3.39683 7.8295 5.197C9.95575 4.40075 10.857 3.19033 10.9637 3.0375C9.87293 2.06439 8.46179 1.52735 7 1.529C6.51875 1.529 6.04917 1.58733 5.6 1.69525V1.697ZM11.6287 3.72875C11.5016 3.89792 10.5 5.183 8.28975 6.08542C8.42975 6.37125 8.56392 6.66 8.68642 6.95225C8.73308 7.05725 8.77392 7.16225 8.81475 7.26142C10.8039 7.01058 12.7814 7.41308 12.9797 7.45392C12.9681 6.04225 12.4664 4.74725 11.6322 3.73225L11.6287 3.72875Z" fill="white"/>
</svg>
