<svg width="14" height="15" viewBox="0 0 14 15" fill="none" xmlns="http://www.w3.org/2000/svg">
<g clip-path="url(#clip0_5_273)">
<path d="M7 0.5C5.09833 0.5 4.86092 0.50875 4.11425 0.542C3.36875 0.577 2.86125 0.69425 2.415 0.8675C1.95475 1.046 1.56392 1.28575 1.17483 1.67483C0.78575 2.06392 0.545417 2.45417 0.3675 2.915C0.19425 3.36125 0.0764167 3.86875 0.042 4.61425C0.007 5.36092 0 5.59833 0 7.5C0 9.40167 0.00875 9.63908 0.042 10.3857C0.077 11.1307 0.19425 11.6388 0.3675 12.085C0.543254 12.5522 0.818765 12.9754 1.17483 13.3252C1.52441 13.6815 1.94769 13.957 2.415 14.1325C2.86183 14.3052 3.36933 14.4236 4.11425 14.458C4.86092 14.493 5.09833 14.5 7 14.5C8.90167 14.5 9.13908 14.4912 9.88575 14.458C10.6307 14.423 11.1388 14.3052 11.585 14.1325C12.0521 13.9565 12.4752 13.681 12.8252 13.3252C13.1816 12.9757 13.4572 12.5524 13.6325 12.085C13.8052 11.6388 13.9236 11.1307 13.958 10.3857C13.993 9.63908 14 9.40167 14 7.5C14 5.59833 13.9912 5.36092 13.958 4.61425C13.923 3.86933 13.8052 3.36067 13.6325 2.915C13.4567 2.44788 13.1812 2.02467 12.8252 1.67483C12.4758 1.31821 12.0525 1.04261 11.585 0.8675C11.1388 0.69425 10.6307 0.576417 9.88575 0.542C9.13908 0.507 8.90167 0.5 7 0.5ZM7 1.76C8.86842 1.76 9.09125 1.76933 9.82917 1.80142C10.5117 1.8335 10.8821 1.94667 11.1282 2.0435C11.4561 2.17008 11.6882 2.32175 11.9344 2.56617C12.1788 2.81117 12.3305 3.04392 12.4571 3.37175C12.5527 3.61792 12.6671 3.98833 12.698 4.67083C12.7312 5.40933 12.7388 5.631 12.7388 7.5C12.7388 9.369 12.7301 9.59125 12.6957 10.3292C12.6601 11.0117 12.5463 11.3821 12.4501 11.6282C12.3362 11.932 12.1572 12.2072 11.9257 12.4344C11.6994 12.6662 11.4244 12.8447 11.1207 12.9571C10.8757 13.0527 10.4994 13.1671 9.81692 13.198C9.07375 13.2312 8.855 13.2388 6.9825 13.2388C5.10942 13.2388 4.89067 13.2301 4.14808 13.1957C3.465 13.1601 3.08875 13.0463 2.84375 12.9501C2.53978 12.8376 2.26489 12.6584 2.03933 12.4257C1.80517 12.2009 1.62558 11.9256 1.51433 11.6207C1.41808 11.3757 1.30492 10.9994 1.26933 10.3169C1.24308 9.58192 1.23375 9.355 1.23375 7.49125C1.23375 5.62692 1.24308 5.39942 1.26933 4.65567C1.30492 3.97317 1.41808 3.5975 1.51433 3.3525C1.63683 3.02 1.79375 2.7925 2.03933 2.54692C2.28375 2.3025 2.51183 2.145 2.84375 2.02308C3.08875 1.92625 3.45683 1.8125 4.13933 1.7775C4.88308 1.75125 5.10183 1.7425 6.97375 1.7425L7 1.76ZM7 3.9055C6.52796 3.9055 6.06055 3.99847 5.62444 4.17912C5.18834 4.35976 4.79208 4.62452 4.4583 4.9583C4.12452 5.29208 3.85976 5.68834 3.67911 6.12444C3.49847 6.56055 3.4055 7.02796 3.4055 7.5C3.4055 7.97204 3.49847 8.43945 3.67911 8.87556C3.85976 9.31166 4.12452 9.70791 4.4583 10.0417C4.79208 10.3755 5.18834 10.6402 5.62444 10.8209C6.06055 11.0015 6.52796 11.0945 7 11.0945C7.95332 11.0945 8.86759 10.7158 9.54169 10.0417C10.2158 9.36759 10.5945 8.45332 10.5945 7.5C10.5945 6.54668 10.2158 5.6324 9.54169 4.9583C8.86759 4.2842 7.95332 3.9055 7 3.9055ZM7 9.83333C5.71083 9.83333 4.66667 8.78917 4.66667 7.5C4.66667 6.21083 5.71083 5.16667 7 5.16667C8.28917 5.16667 9.33333 6.21083 9.33333 7.5C9.33333 8.78917 8.28917 9.83333 7 9.83333ZM11.5768 3.76375C11.5687 3.98111 11.4767 4.18688 11.32 4.33779C11.1634 4.48871 10.9543 4.57302 10.7368 4.57302C10.5193 4.57302 10.3103 4.48871 10.1536 4.33779C9.99698 4.18688 9.90493 3.98111 9.89683 3.76375C9.89683 3.54097 9.98533 3.32731 10.1429 3.16978C10.3004 3.01225 10.5141 2.92375 10.7368 2.92375C10.9596 2.92375 11.1733 3.01225 11.3308 3.16978C11.4883 3.32731 11.5768 3.54097 11.5768 3.76375Z" fill="white"/>
</g>
<defs>
<clipPath id="clip0_5_273">
<rect width="14" height="14" fill="white" transform="translate(0 0.5)"/>
</clipPath>
</defs>
</svg>
